<svg width="63" height="63" viewBox="0 0 63 63" fill="none" xmlns="http://www.w3.org/2000/svg">
<rect width="63" height="63" rx="8" fill="#76AEB6"/>
<g clip-path="url(#clip0_1343_17411)">
<path d="M49.5182 29.2403C48.37 28.4199 46.7651 28.4199 45.6046 29.2403C45.37 29.4019 45.1601 29.5883 44.9873 29.7997C43.5552 28.0346 40.4071 26.9159 36.7034 26.3814C36.1725 22.7021 35.0861 19.5697 33.37 18.1029C33.5799 17.9165 33.7651 17.7052 33.9379 17.469C34.7527 16.313 34.7527 14.6971 33.9379 13.5287C33.2713 12.5591 32.2219 12.0122 31.0861 12.0122C29.9503 12.0122 28.9132 12.5467 28.2466 13.5038C27.4317 14.6598 27.4317 16.2757 28.2466 17.4442C28.4194 17.6928 28.6169 17.9041 28.8268 18.0905C27.1108 19.5573 26.0243 22.6896 25.4935 26.3689C22.1478 26.8537 19.2466 27.8108 17.6663 29.29C17.5799 29.2154 17.5058 29.1284 17.4071 29.0538C16.2589 28.2335 14.654 28.2335 13.4935 29.0538C12.5305 29.7251 11.9873 30.7816 11.9873 31.9252C11.9873 33.0688 12.5182 34.1129 13.4688 34.7841C14.6169 35.6045 16.2219 35.6045 17.3824 34.7841C17.4564 34.7344 17.5058 34.6722 17.5676 34.6225C19.1231 36.1639 22.0737 37.1458 25.4935 37.643C26.0243 41.3223 27.1108 44.4547 28.8268 45.9215C28.6169 46.1079 28.4317 46.3192 28.2589 46.5554C27.4441 47.7114 27.4441 49.3273 28.2589 50.4957C28.9256 51.4653 29.975 52.0122 31.1108 52.0122C32.2466 52.0122 33.2836 51.4777 33.9503 50.5206C34.7651 49.3646 34.7651 47.7487 33.9503 46.5803C33.7774 46.3317 33.5799 46.1203 33.37 45.9339C35.0861 44.4671 36.1725 41.3348 36.7034 37.6555C40.3453 37.121 43.4441 36.0396 44.9132 34.3242C45.1108 34.5604 45.333 34.7841 45.5922 34.9706C46.7404 35.7909 48.3453 35.7909 49.5058 34.9706C50.4688 34.2993 51.012 33.2428 51.012 32.0992C51.012 30.9556 50.4811 29.9115 49.5305 29.2403H49.5182ZM31.1108 20.7506C31.6293 21.1359 32.5305 22.9258 33.0984 26.0333C32.4441 26.0085 31.7774 25.9836 31.1108 25.9836C30.4441 25.9836 29.7774 26.0085 29.1231 26.0333C29.691 22.9258 30.5922 21.1483 31.1108 20.7506ZM33.6046 32.0122C33.6046 32.8699 33.5799 33.6778 33.5305 34.4361C32.7774 34.4858 31.975 34.5107 31.1231 34.5107C30.2713 34.5107 29.4688 34.4858 28.7034 34.4361C28.654 33.6778 28.6293 32.8699 28.6293 32.0122C28.6293 31.1545 28.654 30.3466 28.7034 29.5759C29.4564 29.5262 30.2713 29.5013 31.1231 29.5013C31.975 29.5013 32.7774 29.5262 33.5305 29.5759C33.5799 30.3341 33.6046 31.1545 33.6046 32.0122ZM19.9379 32.0122C20.3206 31.4901 22.0984 30.5827 25.1848 30.011C25.1601 30.6698 25.1355 31.341 25.1355 32.0122C25.1355 32.6834 25.1601 33.3547 25.1848 34.0134C22.0984 33.4417 20.333 32.5343 19.9379 32.0122ZM31.1231 43.2614C30.6046 42.8761 29.7034 41.0862 29.1355 37.9786C29.7898 38.0035 30.4564 38.0284 31.1231 38.0284C31.7898 38.0284 32.4564 38.0035 33.1108 37.9786C32.5429 41.0862 31.6416 42.8637 31.1231 43.2614ZM37.0614 34.0134C37.0861 33.3547 37.1108 32.6834 37.1108 32.0122C37.1108 31.341 37.0861 30.6698 37.0614 30.011C40.1478 30.5827 41.9256 31.4901 42.3083 32.0122C41.9256 32.5343 40.1478 33.4417 37.0614 34.0134Z" fill="white"/>
</g>
<defs>
<clipPath id="clip0_1343_17411">
<rect width="39" height="40" fill="white" transform="translate(12 12)"/>
</clipPath>
</defs>
</svg>
